<svg width="24" height="24" viewBox="0 0 24 24" fill="none" xmlns="http://www.w3.org/2000/svg">
<rect width="24" height="24" fill="white"/>
<path fill-rule="evenodd" clip-rule="evenodd" d="M19.6088 18.748H13.2318C12.8178 18.748 12.4818 19.084 12.4818 19.498C12.4818 19.912 12.8178 20.248 13.2318 20.248H19.6088C20.0228 20.248 20.3588 19.912 20.3588 19.498C20.3588 19.084 20.0228 18.748 19.6088 18.748Z" fill="#008080"/>
<path fill-rule="evenodd" clip-rule="evenodd" d="M9.36691 7.7396C9.46636 7.60734 9.65412 7.58058 9.78656 7.67979L14.9665 11.5602C15.0992 11.6596 15.1261 11.8478 15.0266 11.9804L10.2069 18.4002C9.04688 19.9502 7.29688 20.2602 6.08688 20.2602C5.33688 20.2602 4.79688 20.1402 4.73688 20.1302C4.60688 20.1002 4.48688 20.0102 4.41688 19.8902C4.34688 19.7602 2.62688 16.7002 4.54688 14.1502L9.36691 7.7396Z" fill="#008080"/>
<path fill-rule="evenodd" clip-rule="evenodd" d="M16.9569 9.41023L16.2869 10.301C16.1874 10.4332 15.9997 10.4599 15.8673 10.3607L10.6864 6.47969C10.5541 6.38052 10.5269 6.19289 10.6258 6.06027L11.2969 5.16023C11.9869 4.23023 13.0569 3.74023 14.1369 3.74023C14.8769 3.74023 15.6169 3.97023 16.2569 4.45023C17.0069 5.02023 17.4969 5.85023 17.6369 6.78023C17.7669 7.72023 17.5269 8.65023 16.9569 9.41023Z" fill="#008080"/>
</svg>
